<svg width="80" height="80" viewBox="0 0 80 80" fill="none" xmlns="http://www.w3.org/2000/svg">
<circle opacity="0.16" cx="40" cy="40" r="40" fill="#2F2F2F"/>
<g clip-path="url(#clip0)">
<path d="M26.5672 26.7557L42.6296 30.7661C44.5641 31.2495 46.1459 33.2758 46.1459 35.2708V49.7708C46.1459 51.7645 44.5581 53.0212 42.6175 52.5645L29.1325 49.3938C27.1919 48.9358 25.6042 46.9312 25.6042 44.9375V29.2291C25.6042 27.2342 27.2354 25.6041 29.2292 25.6041H49.7709C51.7646 25.6041 53.3959 27.2342 53.3959 29.2291V42.5208C53.3959 44.5145 51.7646 46.1458 49.7709 46.1458H46.1459" stroke="#9F9F9F" stroke-width="2" stroke-miterlimit="10" stroke-linecap="round" stroke-linejoin="round"/>
<path d="M36.4792 29.2291H48.5625" stroke="#9F9F9F" stroke-width="2" stroke-miterlimit="10" stroke-linecap="round" stroke-linejoin="round"/>
<path d="M40.7084 43.7291C42.043 43.7291 43.125 42.6471 43.125 41.3124C43.125 39.9777 42.043 38.8958 40.7084 38.8958C39.3737 38.8958 38.2917 39.9777 38.2917 41.3124C38.2917 42.6471 39.3737 43.7291 40.7084 43.7291Z" stroke="#9F9F9F" stroke-width="2" stroke-miterlimit="10" stroke-linecap="round" stroke-linejoin="round"/>
<path d="M46.1459 35.2708H48.5625" stroke="#9F9F9F" stroke-width="2" stroke-miterlimit="10" stroke-linecap="round" stroke-linejoin="round"/>
</g>
<defs>
<clipPath id="clip0">
<rect width="29" height="29" fill="white" transform="translate(25 25)"/>
</clipPath>
</defs>
</svg>
